
<svg width="439.000000" height="371.000000" viewBox="0 0 439 371" fill="none" xmlns="http://www.w3.org/2000/svg" xmlns:xlink="http://www.w3.org/1999/xlink">
	<desc>
			Created with Pixso.
	</desc>
	<defs>
		<linearGradient x1="217.945511" y1="16.699347" x2="217.930832" y2="68.330589" id="paint_linear_1_6818_0" gradientUnits="userSpaceOnUse">
			<stop stop-color="#22C1D9"/>
			<stop offset="1.000000" stop-color="#22C1D9" stop-opacity="0.000000"/>
		</linearGradient>
		<linearGradient x1="399.629089" y1="154.271393" x2="349.321381" y2="165.887619" id="paint_linear_1_6819_0" gradientUnits="userSpaceOnUse">
			<stop stop-color="#22C1D9"/>
			<stop offset="1.000000" stop-color="#22C1D9" stop-opacity="0.000000"/>
		</linearGradient>
		<linearGradient x1="35.691380" y1="154.272003" x2="85.998528" y2="165.888275" id="paint_linear_1_6820_0" gradientUnits="userSpaceOnUse">
			<stop stop-color="#22C1D9"/>
			<stop offset="1.000000" stop-color="#22C1D9" stop-opacity="0.000000"/>
		</linearGradient>
		<linearGradient x1="107.736191" y1="356.286469" x2="136.593857" y2="313.473145" id="paint_linear_1_6821_0" gradientUnits="userSpaceOnUse">
			<stop stop-color="#22C1D9"/>
			<stop offset="1.000000" stop-color="#22C1D9" stop-opacity="0.000000"/>
		</linearGradient>
		<linearGradient x1="332.630585" y1="355.894714" x2="301.556000" y2="314.662140" id="paint_linear_1_6822_0" gradientUnits="userSpaceOnUse">
			<stop stop-color="#22C1D9"/>
			<stop offset="1.000000" stop-color="#22C1D9" stop-opacity="0.000000"/>
		</linearGradient>
	</defs>
	<path id="路径" d="M306.56 322.77L361.32 162.46L217.94 58.25L74.55 162.46L129.33 322.77L306.56 322.77L306.56 322.77Z" fill="#036B82" fill-opacity="0.501961" fill-rule="evenodd"/>
	<path id="路径" d="M361.32 162.46L217.94 58.25L74.55 162.46L129.33 322.77L306.56 322.77L306.56 322.77L361.32 162.46Z" stroke="#095177" stroke-opacity="1.000000" stroke-width="1.000000" stroke-dasharray="0 0"/>
	<path id="路径" d="M290.25 303.2L334.94 168.39L217.95 83.36L100.94 168.39L145.63 303.2L290.25 303.2L290.25 303.2Z" fill="#002B38" fill-opacity="1.000000" fill-rule="evenodd"/>
	<path id="路径" d="M334.94 168.39L217.95 83.36L100.94 168.39L145.63 303.2L290.25 303.2L290.25 303.2L334.94 168.39Z" stroke="#095177" stroke-opacity="1.000000" stroke-width="1.000000" stroke-dasharray="0 0"/>
	<path id="路径" d="M273.72 280.53L308.2 174.39L217.94 108.79L127.67 174.39L162.15 280.53L273.72 280.53L273.72 280.53Z" fill="#036B82" fill-opacity="0.501961" fill-rule="evenodd"/>
	<path id="路径" d="M308.2 174.39L217.94 108.79L127.67 174.39L162.15 280.53L273.72 280.53L273.72 280.53L308.2 174.39Z" stroke="#095177" stroke-opacity="1.000000" stroke-width="1.000000" stroke-dasharray="0 0"/>
	<path id="路径" d="M252.96 248.55L274.6 181.93L217.95 140.75L161.28 181.93L182.92 248.55L252.96 248.55L252.96 248.55Z" fill="#002B38" fill-opacity="1.000000" fill-rule="evenodd"/>
	<path id="路径" d="M274.6 181.93L217.95 140.75L161.28 181.93L182.92 248.55L252.96 248.55L252.96 248.55L274.6 181.93Z" stroke="#095177" stroke-opacity="1.000000" stroke-width="1.000000" stroke-dasharray="0 0"/>
	<path id="路径" d="M236.44 223.13L247.86 187.94L217.94 166.19L188.01 187.94L199.44 223.13L236.44 223.13L236.44 223.13Z" fill="#036B82" fill-opacity="0.501961" fill-rule="evenodd"/>
	<path id="路径" d="M247.86 187.94L217.94 166.19L188.01 187.94L199.44 223.13L236.44 223.13L236.44 223.13L247.86 187.94Z" stroke="#095177" stroke-opacity="1.000000" stroke-width="1.000000" stroke-dasharray="0 0"/>
	<path id="矩形 186" d="M218.59 57.47L218.59 194.64L217.29 194.64L217.29 57.47L218.59 57.47L218.59 57.47Z" fill="#22C1D9" fill-opacity="1.000000" fill-rule="evenodd"/>
	<path id="路径" d="M361.7 162.59L217.94 194.87L307.21 322.86" stroke="#22C1D9" stroke-opacity="1.000000" stroke-width="1.000000" stroke-dasharray="0 0"/>
	<path id="路径" d="M129.66 323.39L217.94 194.86L74.03 162.37" stroke="#22C1D9" stroke-opacity="1.000000" stroke-width="1.000000" stroke-dasharray="0 0"/>
	<path id="路径" d="M297.51 176.29L218.84 134.28L143.05 178.24L153.16 288.6L276.89 280.96L297.51 176.29L297.51 176.29Z" fill="#22C1D9" fill-opacity="0.501961" fill-rule="evenodd"/>
	<path id="路径" d="M218.84 134.28L143.05 178.24L153.16 288.6L276.89 280.96L297.51 176.29L297.51 176.29L218.84 134.28Z" stroke="#22C1D9" stroke-opacity="1.000000" stroke-width="1.000000" stroke-dasharray="0 0"/>
	<path id="路径" d="M214.67 135.2C214.67 137 216.14 138.47 217.94 138.47C219.74 138.47 221.2 137 221.2 135.2C221.2 133.4 219.74 131.94 217.94 131.94C216.14 131.94 214.67 133.4 214.67 135.2L214.67 135.2Z" fill="#A7F2FE" fill-opacity="1.000000" fill-rule="evenodd"/>
	<path id="路径" d="M293.03 177.66C293.03 179.83 294.49 181.58 296.3 181.58C298.1 181.58 299.56 179.83 299.56 177.66C299.56 175.49 298.1 173.74 296.3 173.74C294.49 173.74 293.03 175.49 293.03 177.66L293.03 177.66Z" fill="#A7F2FE" fill-opacity="1.000000" fill-rule="evenodd"/>
	<path id="路径" d="M272.14 280.2C272.14 282.01 273.89 283.47 276.05 283.47C278.22 283.47 279.97 282.01 279.97 280.2C279.97 278.4 278.22 276.94 276.05 276.94C273.89 276.94 272.14 278.4 272.14 280.2L272.14 280.2Z" fill="#A7F2FE" fill-opacity="1.000000" fill-rule="evenodd"/>
	<path id="路径" d="M150.68 288.04C150.68 289.85 152.14 291.31 153.95 291.31C155.75 291.31 157.21 289.85 157.21 288.04C157.21 286.24 155.75 284.78 153.95 284.78C152.14 284.78 150.68 286.24 150.68 288.04L150.68 288.04Z" fill="#A7F2FE" fill-opacity="1.000000" fill-rule="evenodd"/>
	<path id="路径" d="M140.23 177.66C140.23 179.83 141.7 181.58 143.5 181.58C145.3 181.58 146.76 179.83 146.76 177.66C146.76 175.49 145.3 173.74 143.5 173.74C141.7 173.74 140.23 175.49 140.23 177.66L140.23 177.66Z" fill="#A7F2FE" fill-opacity="1.000000" fill-rule="evenodd"/>
	<path id="路径" d="M217.76 46.59L240.08 57.48L217.95 29.69L195.75 57.47L217.76 46.59L217.76 46.59Z" fill="url(#paint_linear_1_6818_0)" fill-opacity="1.000000" fill-rule="evenodd"/>
	<path id="路径" d="M370.46 160.82L364.87 185.03L386.97 157.2L354.9 141.83L370.46 160.82L370.46 160.82Z" fill="url(#paint_linear_1_6819_0)" fill-opacity="1.000000" fill-rule="evenodd"/>
	<path id="路径" d="M80.41 141.83L48.34 157.2L70.44 185.03L64.85 160.83L80.41 141.83L80.41 141.83Z" fill="url(#paint_linear_1_6820_0)" fill-opacity="1.000000" fill-rule="evenodd"/>
	<path id="路径" d="M112.14 310.06L115 345.51L148.89 334.85L124.3 331.4L112.14 310.06L112.14 310.06Z" fill="url(#paint_linear_1_6821_0)" fill-opacity="1.000000" fill-rule="evenodd"/>
	<path id="路径" d="M290.37 336.67L324.81 345.51L325.77 309.99L314.5 332.12L290.37 336.67L290.37 336.67Z" fill="url(#paint_linear_1_6822_0)" fill-opacity="1.000000" fill-rule="evenodd"/>
	<path id="氮" d="M220.95 5.06L212.74 5.06L212.74 6.66L211.86 6.66L211.86 4.21L216.59 4.21C216.42 3.86 216.19 3.47 215.96 3.15L216.82 2.87C217.13 3.27 217.45 3.8 217.62 4.21L221.86 4.21L221.86 6.66L220.95 6.66L220.95 5.06ZM204.5 2.89C204.86 3.46 205.27 4.22 205.44 4.73L204.47 5.04C204.33 4.55 203.94 3.74 203.58 3.15L204.5 2.89ZM229.1 13L224.28 13L224.28 12.08L226.24 12.08L226.24 5.52L224.68 5.52L224.68 4.82C225.46 4.68 226.02 4.48 226.5 4.2L227.34 4.2L227.34 12.08L229.1 12.08L229.1 13ZM209.9 5.06L209.9 5.94L208.02 5.94C207.34 7.84 206.41 9.35 205.21 10.58C206.53 11.7 208.15 12.55 210.06 13.02C209.85 13.22 209.59 13.6 209.45 13.85C207.49 13.29 205.86 12.42 204.53 11.22C203.18 12.39 201.53 13.26 199.54 13.89C199.43 13.68 199.16 13.27 198.98 13.07C200.97 12.5 202.57 11.69 203.88 10.58C202.64 9.31 201.7 7.75 201 5.94L199.15 5.94L199.15 5.06L209.9 5.06ZM204.54 9.96C205.61 8.88 206.41 7.56 207.01 5.94L201.92 5.94C202.55 7.46 203.41 8.83 204.54 9.96ZM217.32 9.38L221.98 9.38L221.98 10.24L217.32 10.24L217.32 12.82C217.32 13.34 217.19 13.61 216.77 13.74C216.35 13.88 215.72 13.89 214.73 13.89C214.66 13.64 214.48 13.25 214.32 13.02C215.14 13.04 215.9 13.04 216.11 13.03C216.34 13.02 216.4 12.97 216.4 12.8L216.4 10.24L211.72 10.24L211.72 9.38L216.4 9.38L216.4 8.64C217.09 8.3 217.88 7.76 218.48 7.24L213.69 7.24L213.69 6.39L219.38 6.39L219.58 6.35L220.19 6.82C219.43 7.58 218.36 8.39 217.32 8.94L217.32 9.38Z" fill="#699DA5" fill-opacity="1.000000" fill-rule="evenodd"/>
	<path id="硅" d="M419.46 148.76L411.25 148.76L411.25 150.36L410.37 150.36L410.37 147.91L415.1 147.91C414.93 147.56 414.7 147.17 414.47 146.85L415.33 146.56C415.64 146.97 415.96 147.5 416.13 147.91L420.37 147.91L420.37 150.36L419.46 150.36L419.46 148.76ZM403.01 146.59C403.37 147.15 403.78 147.92 403.95 148.42L402.98 148.74C402.84 148.24 402.45 147.44 402.09 146.85L403.01 146.59ZM427.79 156.69L422.26 156.69L422.26 156.05C425.02 153.63 426.29 151.88 426.29 150.37C426.29 149.36 425.77 148.63 424.68 148.63C423.95 148.63 423.33 149.07 422.85 149.65L422.21 149.03C422.94 148.24 423.69 147.73 424.81 147.73C426.38 147.73 427.36 148.76 427.36 150.33C427.36 152.08 425.98 153.87 423.92 155.83C424.37 155.79 424.91 155.74 425.36 155.74L427.79 155.74L427.79 156.69ZM408.41 148.76L408.41 149.64L406.53 149.64C405.85 151.53 404.92 153.05 403.72 154.28C405.04 155.4 406.66 156.25 408.57 156.72C408.35 156.92 408.1 157.29 407.96 157.55C406 156.99 404.37 156.12 403.04 154.92C401.69 156.09 400.04 156.96 398.05 157.59C397.94 157.38 397.67 156.97 397.49 156.77C399.47 156.2 401.08 155.39 402.39 154.28C401.15 153.01 400.21 151.45 399.51 149.64L397.66 149.64L397.66 148.76L408.41 148.76ZM403.05 153.66C404.12 152.58 404.92 151.26 405.52 149.64L400.43 149.64C401.06 151.16 401.92 152.53 403.05 153.66ZM415.83 153.08L420.49 153.08L420.49 153.93L415.83 153.93L415.83 156.51C415.83 157.04 415.7 157.31 415.28 157.44C414.86 157.58 414.23 157.59 413.24 157.59C413.17 157.34 412.99 156.94 412.83 156.72C413.65 156.74 414.41 156.74 414.62 156.73C414.85 156.72 414.91 156.67 414.91 156.5L414.91 153.93L410.23 153.93L410.23 153.08L414.91 153.08L414.91 152.34C415.6 152 416.39 151.46 416.99 150.93L412.2 150.93L412.2 150.09L417.89 150.09L418.09 150.05L418.7 150.51C417.94 151.28 416.87 152.08 415.83 152.64L415.83 153.08Z" fill="#699DA5" fill-opacity="1.000000" fill-rule="evenodd"/>
	<path id="漂浮物" d="M22.44 148.76L14.23 148.76L14.23 150.36L13.35 150.36L13.35 147.91L18.08 147.91C17.91 147.56 17.68 147.17 17.46 146.85L18.31 146.56C18.62 146.97 18.94 147.5 19.11 147.91L23.35 147.91L23.35 150.36L22.44 150.36L22.44 148.76ZM6 146.59C6.36 147.15 6.76 147.92 6.93 148.42L5.96 148.74C5.82 148.24 5.43 147.44 5.07 146.85L6 146.59ZM30.7 154.34C30.7 155.91 29.44 156.85 27.88 156.85C26.5 156.85 25.64 156.27 25.06 155.65L25.61 154.93C26.13 155.47 26.8 155.94 27.8 155.94C28.84 155.94 29.59 155.31 29.59 154.31C29.59 153.25 28.88 152.54 26.85 152.54L26.85 151.7C28.66 151.7 29.29 150.97 29.29 150.02C29.29 149.17 28.71 148.63 27.8 148.6C27.09 148.63 26.47 148.99 25.97 149.48L25.39 148.78C26.05 148.17 26.83 147.73 27.85 147.73C29.32 147.73 30.4 148.52 30.4 149.94C30.4 151 29.77 151.71 28.83 152.06L28.83 152.11C29.87 152.35 30.7 153.14 30.7 154.34ZM11.39 148.76L11.39 149.64L9.51 149.64C8.83 151.53 7.9 153.05 6.7 154.28C8.02 155.4 9.64 156.25 11.55 156.72C11.34 156.92 11.08 157.29 10.94 157.55C8.98 156.99 7.35 156.12 6.02 154.92C4.67 156.09 3.02 156.96 1.03 157.59C0.92 157.38 0.65 156.97 0.48 156.77C2.46 156.2 4.06 155.39 5.37 154.28C4.13 153.01 3.19 151.45 2.49 149.64L0.64 149.64L0.64 148.76L11.39 148.76ZM6.03 153.66C7.1 152.58 7.9 151.26 8.5 149.64L3.41 149.64C4.04 151.16 4.9 152.53 6.03 153.66ZM18.81 153.08L23.47 153.08L23.47 153.93L18.81 153.93L18.81 156.51C18.81 157.04 18.68 157.31 18.26 157.44C17.84 157.58 17.22 157.59 16.22 157.59C16.15 157.34 15.97 156.94 15.81 156.72C16.63 156.74 17.39 156.74 17.6 156.73C17.83 156.72 17.89 156.67 17.89 156.5L17.89 153.93L13.21 153.93L13.21 153.08L17.89 153.08L17.89 152.34C18.58 152 19.37 151.46 19.98 150.93L15.18 150.93L15.18 150.09L20.87 150.09L21.07 150.05L21.68 150.51C20.92 151.28 19.86 152.08 18.81 152.64L18.81 153.08Z" fill="#699DA5" fill-opacity="1.000000" fill-rule="evenodd"/>
	<path id="磷" d="M120.38 353.86L112.18 353.86L112.18 355.45L111.3 355.45L111.3 353L116.03 353C115.86 352.66 115.63 352.26 115.4 351.95L116.26 351.66C116.57 352.07 116.89 352.59 117.06 353L121.3 353L121.3 355.45L120.38 355.45L120.38 353.86ZM103.94 351.68C104.3 352.25 104.71 353.02 104.88 353.52L103.91 353.83C103.77 353.34 103.38 352.54 103.02 351.95L103.94 351.68ZM127.78 358.49L128.94 358.49L128.94 359.37L127.78 359.37L127.78 361.79L126.73 361.79L126.73 359.37L122.9 359.37L122.9 358.64L126.56 352.99L127.78 352.99L127.78 358.49ZM109.34 353.86L109.34 354.73L107.46 354.73C106.78 356.63 105.85 358.14 104.65 359.38C105.97 360.49 107.59 361.34 109.5 361.81C109.28 362.02 109.03 362.39 108.89 362.64C106.93 362.09 105.3 361.21 103.97 360.01C102.62 361.19 100.97 362.05 98.97 362.69C98.87 362.47 98.6 362.06 98.42 361.86C100.4 361.3 102.01 360.48 103.32 359.38C102.08 358.11 101.14 356.54 100.44 354.73L98.59 354.73L98.59 353.86L109.34 353.86ZM126.05 355.49L124.04 358.49L126.73 358.49L126.73 355.79C126.73 355.36 126.78 354.65 126.8 354.19L126.76 354.19C126.54 354.62 126.3 355.06 126.05 355.49ZM103.98 358.75C105.05 357.67 105.85 356.35 106.45 354.73L101.36 354.73C101.99 356.26 102.85 357.62 103.98 358.75ZM116.76 358.18L121.42 358.18L121.42 359.03L116.76 359.03L116.76 361.61C116.76 362.14 116.63 362.4 116.21 362.53C115.79 362.68 115.16 362.69 114.17 362.69C114.09 362.44 113.92 362.04 113.76 361.81C114.58 361.83 115.34 361.83 115.55 361.82C115.78 361.81 115.83 361.76 115.83 361.59L115.83 359.03L111.16 359.03L111.16 358.18L115.83 358.18L115.83 357.43C116.53 357.09 117.32 356.56 117.92 356.03L113.13 356.03L113.13 355.19L118.82 355.19L119.02 355.14L119.63 355.61C118.87 356.38 117.8 357.18 116.76 357.73L116.76 358.18Z" fill="#699DA5" fill-opacity="1.000000" fill-rule="evenodd"/>
	<path id="高锰酸钾" d="M331.95 353.86L323.75 353.86L323.75 355.45L322.87 355.45L322.87 353L327.6 353C327.43 352.66 327.2 352.26 326.97 351.95L327.83 351.66C328.14 352.07 328.46 352.59 328.63 353L332.87 353L332.87 355.45L331.95 355.45L331.95 353.86ZM315.51 351.68C315.87 352.25 316.28 353.02 316.45 353.52L315.48 353.83C315.33 353.34 314.95 352.54 314.59 351.95L315.51 351.68ZM340.24 358.92C340.24 360.85 338.85 361.94 337.36 361.94C336 361.94 335.16 361.37 334.57 360.78L335.11 360.06C335.61 360.56 336.25 361.03 337.27 361.03C338.3 361.03 339.14 360.24 339.14 358.95C339.14 357.7 338.42 356.95 337.32 356.95C336.73 356.95 336.36 357.13 335.85 357.47L335.26 357.11L335.54 352.99L339.83 352.99L339.83 353.93L336.5 353.93L336.28 356.47C336.67 356.26 337.07 356.12 337.59 356.12C339.06 356.12 340.24 356.99 340.24 358.92ZM320.91 353.86L320.91 354.73L319.03 354.73C318.35 356.63 317.42 358.14 316.22 359.38C317.54 360.49 319.16 361.34 321.07 361.81C320.85 362.02 320.6 362.39 320.46 362.64C318.5 362.09 316.87 361.21 315.54 360.01C314.19 361.19 312.54 362.05 310.54 362.69C310.44 362.47 310.17 362.06 309.99 361.86C311.97 361.3 313.58 360.48 314.89 359.38C313.65 358.11 312.71 356.54 312.01 354.73L310.16 354.73L310.16 353.86L320.91 353.86ZM315.55 358.75C316.62 357.67 317.42 356.35 318.02 354.73L312.93 354.73C313.56 356.26 314.42 357.62 315.55 358.75ZM328.33 358.18L332.99 358.18L332.99 359.03L328.33 359.03L328.33 361.61C328.33 362.14 328.2 362.4 327.78 362.53C327.36 362.68 326.73 362.69 325.74 362.69C325.66 362.44 325.49 362.04 325.33 361.81C326.14 361.83 326.91 361.83 327.12 361.82C327.35 361.81 327.4 361.76 327.4 361.59L327.4 359.03L322.73 359.03L322.73 358.18L327.4 358.18L327.4 357.43C328.1 357.09 328.89 356.56 329.49 356.03L324.69 356.03L324.69 355.19L330.39 355.19L330.59 355.14L331.2 355.61C330.44 356.38 329.37 357.18 328.33 357.73L328.33 358.18Z" fill="#699DA5" fill-opacity="1.000000" fill-rule="evenodd"/>
</svg>
