<svg width="268.000000" height="246.000000" viewBox="0 0 268 246" fill="none" xmlns="http://www.w3.org/2000/svg" xmlns:xlink="http://www.w3.org/1999/xlink">
	<desc>
			Created with Pixso.
	</desc>
	<defs>
		<filter id="filter_1_5011_dd" x="197.140625" y="31.090576" width="34.000000" height="34.000000" filterUnits="userSpaceOnUse" color-interpolation-filters="sRGB">
			<feFlood flood-opacity="0" result="BackgroundImageFix"/>
			<feColorMatrix in="SourceAlpha" type="matrix" values="0 0 0 0 0 0 0 0 0 0 0 0 0 0 0 0 0 0 127 0" result="hardAlpha"/>
			<feOffset dx="0" dy="0"/>
			<feGaussianBlur stdDeviation="3.66667"/>
			<feComposite in2="hardAlpha" operator="out" k2="-1" k3="1"/>
			<feColorMatrix type="matrix" values="0 0 0 0 0.42353 0 0 0 0 0.60784 0 0 0 0 1 0 0 0 1 0"/>
			<feBlend mode="normal" in2="BackgroundImageFix" result="effect_dropShadow_1"/>
			<feBlend mode="normal" in="SourceGraphic" in2="effect_dropShadow_1" result="shape"/>
		</filter>
		<filter id="filter_1_5016_dd" x="157.140625" y="91.090576" width="34.000000" height="34.000000" filterUnits="userSpaceOnUse" color-interpolation-filters="sRGB">
			<feFlood flood-opacity="0" result="BackgroundImageFix"/>
			<feColorMatrix in="SourceAlpha" type="matrix" values="0 0 0 0 0 0 0 0 0 0 0 0 0 0 0 0 0 0 127 0" result="hardAlpha"/>
			<feOffset dx="0" dy="0"/>
			<feGaussianBlur stdDeviation="3.66667"/>
			<feComposite in2="hardAlpha" operator="out" k2="-1" k3="1"/>
			<feColorMatrix type="matrix" values="0 0 0 0 0.42353 0 0 0 0 0.60784 0 0 0 0 1 0 0 0 1 0"/>
			<feBlend mode="normal" in2="BackgroundImageFix" result="effect_dropShadow_1"/>
			<feBlend mode="normal" in="SourceGraphic" in2="effect_dropShadow_1" result="shape"/>
		</filter>
		<filter id="filter_1_5021_dd" x="119.140625" y="151.090698" width="34.000000" height="34.000000" filterUnits="userSpaceOnUse" color-interpolation-filters="sRGB">
			<feFlood flood-opacity="0" result="BackgroundImageFix"/>
			<feColorMatrix in="SourceAlpha" type="matrix" values="0 0 0 0 0 0 0 0 0 0 0 0 0 0 0 0 0 0 127 0" result="hardAlpha"/>
			<feOffset dx="0" dy="0"/>
			<feGaussianBlur stdDeviation="3.66667"/>
			<feComposite in2="hardAlpha" operator="out" k2="-1" k3="1"/>
			<feColorMatrix type="matrix" values="0 0 0 0 0.42353 0 0 0 0 0.60784 0 0 0 0 1 0 0 0 1 0"/>
			<feBlend mode="normal" in2="BackgroundImageFix" result="effect_dropShadow_1"/>
			<feBlend mode="normal" in="SourceGraphic" in2="effect_dropShadow_1" result="shape"/>
		</filter>
		<filter id="filter_1_5026_dd" x="55.140625" y="211.090820" width="34.000000" height="34.000000" filterUnits="userSpaceOnUse" color-interpolation-filters="sRGB">
			<feFlood flood-opacity="0" result="BackgroundImageFix"/>
			<feColorMatrix in="SourceAlpha" type="matrix" values="0 0 0 0 0 0 0 0 0 0 0 0 0 0 0 0 0 0 127 0" result="hardAlpha"/>
			<feOffset dx="0" dy="0"/>
			<feGaussianBlur stdDeviation="3.66667"/>
			<feComposite in2="hardAlpha" operator="out" k2="-1" k3="1"/>
			<feColorMatrix type="matrix" values="0 0 0 0 0.42353 0 0 0 0 0.60784 0 0 0 0 1 0 0 0 1 0"/>
			<feBlend mode="normal" in2="BackgroundImageFix" result="effect_dropShadow_1"/>
			<feBlend mode="normal" in="SourceGraphic" in2="effect_dropShadow_1" result="shape"/>
		</filter>
		<linearGradient x1="220.140625" y1="48.090576" x2="0.140625" y2="48.090576" id="paint_linear_1_5010_0" gradientUnits="userSpaceOnUse">
			<stop stop-color="#0052FF"/>
			<stop offset="1.000000" stop-color="#6C9BFF" stop-opacity="0.000000"/>
		</linearGradient>
		<linearGradient x1="180.140625" y1="108.090698" x2="0.140625" y2="108.090698" id="paint_linear_1_5015_0" gradientUnits="userSpaceOnUse">
			<stop stop-color="#0052FF"/>
			<stop offset="1.000000" stop-color="#6C9BFF" stop-opacity="0.000000"/>
		</linearGradient>
		<linearGradient x1="142.140625" y1="168.090576" x2="0.140625" y2="168.090576" id="paint_linear_1_5020_0" gradientUnits="userSpaceOnUse">
			<stop stop-color="#0052FF"/>
			<stop offset="1.000000" stop-color="#6C9BFF" stop-opacity="0.000000"/>
		</linearGradient>
		<linearGradient x1="78.140625" y1="228.090820" x2="0.140625" y2="228.090820" id="paint_linear_1_5025_0" gradientUnits="userSpaceOnUse">
			<stop stop-color="#0052FF"/>
			<stop offset="1.000000" stop-color="#6C9BFF" stop-opacity="0.000000"/>
		</linearGradient>
	</defs>
	<path id="87" d="M238.99 27.96Q240.74 29.28 243.87 29.28Q247.03 29.28 248.77 27.98Q249.12 27.71 249.4 27.39Q250.51 26.11 250.51 23.87Q250.51 22.75 250.24 21.93Q249.97 21.1 249.49 20.51Q249.11 20.03 248.62 19.72Q248.51 19.64 248.39 19.58Q248.36 19.56 248.33 19.54Q247.73 19.21 247.06 19L247.06 18.88Q248.49 18.32 249.17 17.28Q249.86 16.23 249.86 14.46Q249.86 13.31 249.51 12.36Q249.32 11.84 249.01 11.4Q248.76 11.04 248.43 10.73Q247.71 10.04 246.57 9.66Q245.44 9.28 243.87 9.28Q242.3 9.28 241.17 9.66Q240.03 10.04 239.3 10.73Q238.99 11.02 238.75 11.36Q238.43 11.82 238.23 12.36Q237.88 13.31 237.88 14.46Q237.88 16.28 238.66 17.31Q238.87 17.58 239.12 17.82Q239.78 18.48 240.68 18.88L240.68 19Q240.06 19.22 239.44 19.58Q238.83 19.92 238.34 20.5Q237.85 21.07 237.54 21.9Q237.24 22.72 237.24 23.84Q237.24 26.05 238.33 27.34Q238.62 27.69 238.99 27.96ZM253.45 11.75L264.12 11.75L255.72 29L258.29 29L266.27 12.03L266.27 9.56L253.45 9.56L253.45 11.75ZM245.62 17.81Q244.91 18.08 243.87 18.08Q242.78 18.08 242.06 17.81Q241.35 17.54 240.91 17.07Q240.68 16.81 240.53 16.51Q240.39 16.26 240.31 15.97Q240.15 15.36 240.15 14.63Q240.15 13.15 240.89 12.32Q241.81 11.3 243.87 11.3Q245.75 11.3 246.67 12.16Q246.81 12.3 246.94 12.45Q247.59 13.28 247.59 14.63Q247.59 15.36 247.39 15.97Q247.31 16.26 247.16 16.52Q247 16.81 246.77 17.07Q246.34 17.54 245.62 17.81ZM247.17 26.29Q246.16 27.23 243.87 27.23Q241.58 27.23 240.58 26.29Q240.33 26.06 240.14 25.78Q239.59 24.95 239.59 23.76Q239.59 21.87 240.53 20.94Q240.58 20.89 240.63 20.85Q241.69 19.92 243.87 19.92Q246.06 19.92 247.11 20.85Q247.19 20.91 247.25 20.98Q248.18 21.9 248.18 23.76Q248.18 24.92 247.65 25.73Q247.45 26.04 247.17 26.29Z" fill="#FFFAF9" fill-opacity="1.000000" fill-rule="evenodd"/>
	<g opacity="0.835379">
		<path id="数据一" d="M18.6 24.08Q16.13 22.22 14.71 20.2Q15.17 19.38 15.5 18.48Q15.84 17.56 16.07 16.54Q16.3 15.52 16.45 14.35Q16.61 13.16 16.74 11.8L18.1 11.8L18.1 10.37L12.9 10.37Q13.16 9.64 13.37 8.94Q13.58 8.22 13.74 7.5L12.34 7.16Q12.17 8 11.89 8.99Q11.61 9.98 11.22 10.99Q11.16 11.16 11.09 11.33Q10.75 12.15 10.34 12.93Q9.86 13.88 9.29 14.66L10.42 15.39Q10.6 15.1 10.76 14.81Q10.93 14.53 11.1 14.24Q11.35 15.92 11.82 17.38Q12.3 18.84 13.07 20.2Q12.37 21.28 11.35 22.24Q10.33 23.18 8.89 24.15L9.82 25.26Q11.17 24.28 12.17 23.36Q13.18 22.45 13.91 21.46Q14.62 22.42 15.51 23.33Q16.41 24.24 17.56 25.17L18.6 24.08ZM25.4 16.51Q25.92 16.28 26.29 16.1L26.18 15.5L26.03 14.7Q25.7 14.86 25.26 15.06Q24.83 15.26 24.32 15.48L24.32 12.25L26.2 12.25L26.2 10.86L24.32 10.86L24.32 7.28L22.93 7.25L22.93 10.86L20.61 10.86L20.61 12.25L22.93 12.25L22.93 16.03Q22.07 16.36 21.28 16.65Q20.5 16.94 19.96 17.1L20.25 18.53Q20.76 18.36 21.46 18.11Q22.18 17.84 22.93 17.54L22.93 22.4Q22.93 22.74 22.89 22.96Q22.84 23.18 22.7 23.3Q22.58 23.42 22.34 23.48Q22.11 23.54 21.76 23.56L20.78 23.64L21.16 25L22.04 24.92Q22.71 24.88 23.15 24.77Q23.59 24.66 23.85 24.42Q23.89 24.39 23.93 24.35Q24.13 24.13 24.21 23.79Q24.32 23.4 24.32 22.78L24.32 16.98Q24.9 16.74 25.4 16.51ZM2.74 14.39Q1.66 15.24 0.28 15.92L0.99 17Q2.25 16.32 3.24 15.54Q4.24 14.75 5 13.86L5 16.32L6.33 16.32L6.33 12.6L9.93 12.6L9.93 11.38L6.33 11.38L6.33 7.36L5 7.28L5 11.38L0.9 11.38L0.9 12.6L4.66 12.6Q3.82 13.54 2.74 14.39ZM9.36 8.94Q9.56 8.56 9.69 8.24L8.58 7.74Q8.43 8.09 8.24 8.48Q8.05 8.86 7.84 9.23Q7.63 9.6 7.41 9.95Q7.19 10.28 7.01 10.52L8.01 11.08Q8.21 10.82 8.45 10.46Q8.69 10.1 8.92 9.72Q9.16 9.33 9.36 8.94ZM2.64 10.36Q2.79 10.74 2.9 11.06L4 10.68Q3.87 10.34 3.71 9.95Q3.69 9.89 3.67 9.84Q3.53 9.49 3.38 9.15Q3.2 8.76 3.01 8.43Q2.83 8.09 2.7 7.87L1.64 8.26Q1.77 8.53 1.95 8.87Q2.14 9.2 2.32 9.58Q2.5 9.97 2.64 10.36ZM33.68 18.68L33.68 16.46L38.11 16.46L38.11 15.24L33.68 15.24L33.68 13.6L32.31 13.56L32.31 15.24L28.44 15.24Q28.46 14.97 28.46 14.66L28.46 13.11L37.11 13.11L37.11 8.26L27.07 8.26L27.07 13.84Q27.07 15.81 26.96 17.26Q26.85 18.71 26.59 19.89Q26.32 21.06 25.87 22.09Q25.43 23.12 24.76 24.26L26.03 25.02Q26.64 24.04 27.05 23.12Q27.47 22.2 27.75 21.2Q28.04 20.19 28.19 19.04Q28.35 17.89 28.42 16.46L32.31 16.46L32.31 18.68L29.21 18.68L29.21 25.2L30.56 25.2L30.56 24.15L35.45 24.15L35.45 25.19L36.8 25.19L36.8 18.68L33.68 18.68ZM28.46 11.85L28.46 9.55L35.72 9.55L35.72 11.85L28.46 11.85ZM12.7 15.83Q12.28 14.26 12.06 12.36L12.3 11.8L15.4 11.8Q15.2 13.98 14.86 15.67Q14.51 17.36 13.85 18.8Q13.85 18.79 13.84 18.77Q13.11 17.39 12.7 15.83ZM7.84 15.25Q8.49 15.94 9.07 16.65L9.87 15.72Q9.27 15.04 8.57 14.36Q7.87 13.66 7.36 13.26L6.55 14Q7.19 14.57 7.84 15.25ZM40.02 16.26L57.7 16.26L57.7 14.57L40.02 14.57L40.02 16.26ZM7.37 23.37Q7.98 23.68 8.54 24.02L9.07 22.7Q8.58 22.47 8.11 22.26Q7.65 22.05 7.21 21.83Q7.87 21.16 8.33 20.42Q8.8 19.68 9.2 18.84L9.2 17.7L5.04 17.7L5.23 17.23Q5.33 16.98 5.44 16.72L4.16 16.3Q4.04 16.63 3.88 16.98Q3.74 17.32 3.56 17.7L0.64 17.7L0.64 18.91L2.96 18.91Q2.7 19.38 2.41 19.86Q2.14 20.34 1.86 20.81Q3.29 21.34 4.84 22.08Q4.05 22.56 2.99 22.99Q1.92 23.42 0.42 23.86L1.12 25.12Q2.87 24.55 4.08 23.96Q5.29 23.38 6.15 22.74Q6.77 23.07 7.37 23.37ZM4.77 20.78Q4.22 20.54 3.67 20.32Q3.87 19.99 4.07 19.63Q4.27 19.28 4.45 18.91L7.72 18.91Q7.37 19.6 6.96 20.19Q6.55 20.76 5.95 21.28Q5.33 21.01 4.77 20.78ZM30.56 19.97L35.45 19.97L35.45 22.89L30.56 22.89L30.56 19.97Z" fill="#E1E8F1" fill-opacity="1.000000" fill-rule="evenodd"/>
	</g>
	<g opacity="0.200986">
		<path id="Rectangle 56" d="M263.14 44.09C265.35 44.09 267.14 45.88 267.14 48.09C267.14 50.29 265.35 52.09 263.14 52.09L3.14 52.09C0.93 52.09 -0.86 50.29 -0.86 48.09C-0.86 45.88 0.93 44.09 3.14 44.09L263.14 44.09L263.14 44.09Z" fill="#6C9BFF" fill-opacity="1.000000" fill-rule="evenodd"/>
	</g>
	<path id="Rectangle 57" d="M216.14 44.09C218.35 44.09 220.14 45.88 220.14 48.09C220.14 50.29 218.35 52.09 216.14 52.09L4.14 52.09C1.93 52.09 0.14 50.29 0.14 48.09C0.14 45.88 1.93 44.09 4.14 44.09L216.14 44.09L216.14 44.09Z" fill="url(#paint_linear_1_5010_0)" fill-opacity="1.000000" fill-rule="evenodd"/>
	<path id="Rectangle 57" d="" fill="#979797" fill-opacity="0" fill-rule="evenodd"/>
	<g filter="url(#filter_1_5011_dd)">
		<path id="Ellipse 26" d="M214.14 42.09C217.45 42.09 220.14 44.77 220.14 48.09C220.14 51.4 217.45 54.09 214.14 54.09C210.82 54.09 208.14 51.4 208.14 48.09C208.14 44.77 210.82 42.09 214.14 42.09L214.14 42.09Z" fill="#6C9BFF" fill-opacity="1.000000" fill-rule="evenodd"/>
	</g>
	<path id="76" d="M257.47 88.9Q258.63 89.28 259.97 89.28Q261.59 89.28 262.8 88.78Q263.94 88.29 264.7 87.46Q264.74 87.42 264.77 87.37Q264.84 87.3 264.91 87.21Q265.58 86.37 265.92 85.26Q266.3 84.04 266.3 82.61Q266.3 79.43 264.71 77.89Q264.7 77.88 264.7 77.88Q264.44 77.63 264.16 77.43Q262.67 76.34 260.39 76.34Q258.96 76.34 257.87 76.86Q256.78 77.37 256.22 77.93L256.13 77.93Q256.23 76.74 256.67 75.68Q256.74 75.52 256.81 75.37Q257.09 74.79 257.46 74.27Q257.85 73.75 258.35 73.3Q259.32 72.42 260.73 71.92Q262.13 71.41 263.92 71.41L263.95 69.28Q261.2 69.28 259.23 70.16Q257.78 70.81 256.71 71.86Q256.33 72.23 256 72.66Q254.74 74.27 254.13 76.51Q253.53 78.75 253.53 81.46Q253.53 83.73 254.03 85.23Q254.54 86.73 255.42 87.62Q255.97 88.18 256.62 88.54Q257.03 88.75 257.47 88.9ZM237.35 71.75L248.02 71.75L239.62 89L242.19 89L250.17 72.03L250.17 69.56L237.35 69.56L237.35 71.75ZM262.66 86.33Q261.66 87.18 259.94 87.18Q258.38 87.18 257.43 86.42Q255.94 85.23 255.94 82.17Q255.94 80.84 256.54 79.9Q256.73 79.61 256.97 79.35Q258.01 78.27 260.28 78.27Q261.36 78.27 262.18 78.73Q262.61 78.98 262.96 79.35Q264 80.43 264 82.61Q264 84.91 262.96 86.04Q262.82 86.2 262.66 86.33Z" fill="#FFFAF9" fill-opacity="1.000000" fill-rule="evenodd"/>
	<g opacity="0.835379">
		<path id="数据一" d="M18.6 84.08Q16.13 82.22 14.71 80.2Q15.17 79.38 15.5 78.48Q15.84 77.56 16.07 76.54Q16.3 75.52 16.45 74.35Q16.61 73.16 16.74 71.8L18.1 71.8L18.1 70.37L12.9 70.37Q13.16 69.64 13.37 68.94Q13.58 68.22 13.74 67.5L12.34 67.16Q12.17 68 11.89 68.99Q11.61 69.99 11.22 70.99Q11.16 71.16 11.09 71.33Q10.75 72.15 10.34 72.93Q9.86 73.88 9.29 74.66L10.42 75.39Q10.6 75.1 10.76 74.81Q10.93 74.53 11.1 74.24Q11.35 75.92 11.82 77.38Q12.3 78.84 13.07 80.2Q12.37 81.28 11.35 82.24Q10.33 83.18 8.89 84.15L9.82 85.26Q11.17 84.28 12.17 83.36Q13.18 82.45 13.91 81.46Q14.62 82.42 15.51 83.33Q16.41 84.24 17.56 85.17L18.6 84.08ZM25.4 76.51Q25.92 76.28 26.29 76.1L26.18 75.5L26.03 74.7Q25.7 74.86 25.26 75.06Q24.83 75.26 24.32 75.48L24.32 72.25L26.2 72.25L26.2 70.86L24.32 70.86L24.32 67.28L22.93 67.25L22.93 70.86L20.61 70.86L20.61 72.25L22.93 72.25L22.93 76.03Q22.07 76.36 21.28 76.65Q20.5 76.94 19.96 77.1L20.25 78.53Q20.76 78.36 21.46 78.11Q22.18 77.84 22.93 77.54L22.93 82.4Q22.93 82.74 22.89 82.96Q22.84 83.18 22.7 83.3Q22.58 83.42 22.34 83.48Q22.11 83.54 21.76 83.56L20.78 83.64L21.16 85L22.04 84.92Q22.71 84.88 23.15 84.77Q23.59 84.66 23.85 84.42Q23.89 84.39 23.93 84.35Q24.13 84.13 24.21 83.79Q24.32 83.4 24.32 82.78L24.32 76.98Q24.9 76.74 25.4 76.51ZM2.74 74.39Q1.66 75.24 0.28 75.92L0.99 77Q2.25 76.32 3.24 75.54Q4.24 74.75 5 73.86L5 76.32L6.33 76.32L6.33 72.6L9.93 72.6L9.93 71.38L6.33 71.38L6.33 67.36L5 67.28L5 71.38L0.9 71.38L0.9 72.6L4.66 72.6Q3.82 73.54 2.74 74.39ZM9.36 68.94Q9.56 68.56 9.69 68.24L8.58 67.74Q8.43 68.09 8.24 68.48Q8.05 68.86 7.84 69.23Q7.63 69.6 7.41 69.95Q7.19 70.28 7.01 70.52L8.01 71.08Q8.21 70.82 8.45 70.46Q8.69 70.1 8.92 69.72Q9.16 69.33 9.36 68.94ZM2.64 70.36Q2.79 70.74 2.9 71.06L4 70.68Q3.87 70.34 3.71 69.95Q3.69 69.89 3.67 69.84Q3.53 69.49 3.38 69.15Q3.2 68.76 3.01 68.43Q2.83 68.09 2.7 67.87L1.64 68.26Q1.77 68.53 1.95 68.87Q2.14 69.2 2.32 69.58Q2.5 69.97 2.64 70.36ZM33.68 78.68L33.68 76.46L38.11 76.46L38.11 75.24L33.68 75.24L33.68 73.6L32.31 73.56L32.31 75.24L28.44 75.24Q28.46 74.97 28.46 74.66L28.46 73.11L37.11 73.11L37.11 68.26L27.07 68.26L27.07 73.84Q27.07 75.81 26.96 77.26Q26.85 78.71 26.59 79.89Q26.32 81.06 25.87 82.09Q25.43 83.12 24.76 84.26L26.03 85.02Q26.64 84.04 27.05 83.12Q27.47 82.2 27.75 81.2Q28.04 80.19 28.19 79.04Q28.35 77.89 28.42 76.46L32.31 76.46L32.31 78.68L29.21 78.68L29.21 85.2L30.56 85.2L30.56 84.15L35.45 84.15L35.45 85.19L36.8 85.19L36.8 78.68L33.68 78.68ZM28.46 71.85L28.46 69.55L35.72 69.55L35.72 71.85L28.46 71.85ZM12.7 75.83Q12.28 74.26 12.06 72.36L12.3 71.8L15.4 71.8Q15.2 73.98 14.86 75.67Q14.51 77.36 13.85 78.8Q13.85 78.79 13.84 78.77Q13.11 77.39 12.7 75.83ZM7.84 75.25Q8.49 75.94 9.07 76.65L9.87 75.72Q9.27 75.04 8.57 74.36Q7.87 73.66 7.36 73.26L6.55 74Q7.19 74.57 7.84 75.25ZM40.02 76.26L57.7 76.26L57.7 74.57L40.02 74.57L40.02 76.26ZM7.37 83.37Q7.98 83.68 8.54 84.02L9.07 82.7Q8.58 82.47 8.11 82.26Q7.65 82.05 7.21 81.83Q7.87 81.16 8.33 80.42Q8.8 79.68 9.2 78.84L9.2 77.7L5.04 77.7L5.23 77.23Q5.33 76.98 5.44 76.72L4.16 76.3Q4.04 76.63 3.88 76.98Q3.74 77.32 3.56 77.7L0.64 77.7L0.64 78.91L2.96 78.91Q2.7 79.38 2.41 79.86Q2.14 80.34 1.86 80.81Q3.29 81.34 4.84 82.08Q4.05 82.56 2.99 82.99Q1.92 83.42 0.42 83.86L1.12 85.12Q2.87 84.55 4.08 83.96Q5.29 83.38 6.15 82.74Q6.77 83.07 7.37 83.37ZM4.77 80.78Q4.22 80.54 3.67 80.32Q3.87 79.99 4.07 79.63Q4.27 79.28 4.45 78.91L7.72 78.91Q7.37 79.6 6.96 80.19Q6.55 80.76 5.95 81.28Q5.33 81.01 4.77 80.78ZM30.56 79.97L35.45 79.97L35.45 82.89L30.56 82.89L30.56 79.97Z" fill="#E1E8F1" fill-opacity="1.000000" fill-rule="evenodd"/>
	</g>
	<g opacity="0.200986">
		<path id="Rectangle 56" d="M263.14 104.09C265.35 104.09 267.14 105.88 267.14 108.09C267.14 110.3 265.35 112.09 263.14 112.09L3.14 112.09C0.93 112.09 -0.86 110.3 -0.86 108.09C-0.86 105.88 0.93 104.09 3.14 104.09L263.14 104.09L263.14 104.09Z" fill="#6C9BFF" fill-opacity="1.000000" fill-rule="evenodd"/>
	</g>
	<path id="Rectangle 57" d="M176.14 104.09C178.35 104.09 180.14 105.88 180.14 108.09C180.14 110.3 178.35 112.09 176.14 112.09L4.14 112.09C1.93 112.09 0.14 110.3 0.14 108.09C0.14 105.88 1.93 104.09 4.14 104.09L176.14 104.09L176.14 104.09Z" fill="url(#paint_linear_1_5015_0)" fill-opacity="1.000000" fill-rule="evenodd"/>
	<path id="Rectangle 57" d="" fill="#979797" fill-opacity="0" fill-rule="evenodd"/>
	<g filter="url(#filter_1_5016_dd)">
		<path id="Ellipse 26" d="M174.14 102.09C177.45 102.09 180.14 104.77 180.14 108.09C180.14 111.4 177.45 114.09 174.14 114.09C170.82 114.09 168.14 111.4 168.14 108.09C168.14 104.77 170.82 102.09 174.14 102.09L174.14 102.09Z" fill="#6C9BFF" fill-opacity="1.000000" fill-rule="evenodd"/>
	</g>
	<path id="54" d="M240.14 149.19Q241.07 149.28 242.25 149.28Q244.01 149.28 245.45 148.91Q246.9 148.54 247.9 147.76Q248.23 147.51 248.51 147.2Q249.09 146.58 249.46 145.76Q250.01 144.55 250.01 142.81Q250.01 140.16 248.69 138.76Q248.45 138.51 248.18 138.3Q246.36 136.9 242.97 136.9Q242.3 136.9 241.77 136.94Q241.24 136.98 240.71 137.07L241.52 131.75L248.69 131.75L248.69 129.56L239.62 129.56L238.3 139.22Q239.23 139.06 240.23 138.93Q241.24 138.8 242.02 138.8Q245.05 138.8 246.32 139.8Q246.51 139.94 246.66 140.11Q247.59 141.11 247.59 142.97Q247.59 144.18 247.2 144.98Q246.95 145.49 246.58 145.87Q246.36 146.09 246.11 146.27Q245.41 146.75 244.41 146.97Q243.42 147.18 242.22 147.18Q241.1 147.18 240.22 147.08Q239.34 146.98 238.24 146.7L238.24 148.91Q239.2 149.1 240.14 149.19ZM264.45 144.21L266.75 144.21L266.75 142.08L264.45 142.08L264.45 129.56L261.43 129.56L252.91 141.49L252.91 144.21L262.1 144.21L262.1 149L264.45 149L264.45 144.21ZM262.1 132.14L262.1 142.08L255.05 142.08L255.05 141.91L261.93 132.14L262.1 132.14Z" fill="#FFFAF9" fill-opacity="1.000000" fill-rule="evenodd"/>
	<g opacity="0.835379">
		<path id="数据一" d="M18.6 144.08Q16.13 142.22 14.71 140.21Q15.17 139.39 15.5 138.48Q15.84 137.56 16.07 136.54Q16.3 135.52 16.45 134.35Q16.61 133.16 16.74 131.8L18.1 131.8L18.1 130.37L12.9 130.37Q13.16 129.64 13.37 128.94Q13.58 128.22 13.74 127.51L12.34 127.16Q12.17 128 11.89 128.99Q11.61 129.99 11.22 130.99Q11.16 131.16 11.09 131.33Q10.75 132.15 10.34 132.93Q9.86 133.88 9.29 134.66L10.42 135.39Q10.6 135.1 10.76 134.81Q10.93 134.53 11.1 134.24Q11.35 135.92 11.82 137.38Q12.3 138.84 13.07 140.21Q12.37 141.28 11.35 142.24Q10.33 143.18 8.89 144.14L9.82 145.26Q11.17 144.28 12.17 143.36Q13.18 142.45 13.91 141.47Q14.62 142.42 15.51 143.33Q16.41 144.24 17.56 145.17L18.6 144.08ZM25.4 136.51Q25.92 136.28 26.29 136.1L26.18 135.5L26.03 134.7Q25.7 134.86 25.26 135.06Q24.83 135.26 24.32 135.48L24.32 132.25L26.2 132.25L26.2 130.86L24.32 130.86L24.32 127.29L22.93 127.25L22.93 130.86L20.61 130.86L20.61 132.25L22.93 132.25L22.93 136.03Q22.07 136.36 21.28 136.66Q20.5 136.94 19.96 137.1L20.25 138.53Q20.76 138.36 21.46 138.11Q22.18 137.84 22.93 137.54L22.93 142.4Q22.93 142.74 22.89 142.96Q22.84 143.18 22.7 143.3Q22.58 143.42 22.34 143.48Q22.11 143.55 21.76 143.56L20.78 143.64L21.16 145L22.04 144.92Q22.71 144.88 23.15 144.77Q23.59 144.66 23.85 144.42Q23.89 144.39 23.93 144.35Q24.13 144.13 24.21 143.79Q24.32 143.4 24.32 142.78L24.32 136.98Q24.9 136.74 25.4 136.51ZM2.74 134.39Q1.66 135.24 0.28 135.92L0.99 137Q2.25 136.32 3.24 135.54Q4.24 134.75 5 133.86L5 136.32L6.33 136.32L6.33 132.6L9.93 132.6L9.93 131.38L6.33 131.38L6.33 127.36L5 127.29L5 131.38L0.9 131.38L0.9 132.6L4.66 132.6Q3.82 133.55 2.74 134.39ZM9.36 128.95Q9.56 128.56 9.69 128.24L8.58 127.74Q8.43 128.09 8.24 128.48Q8.05 128.86 7.84 129.23Q7.63 129.6 7.41 129.95Q7.19 130.28 7.01 130.52L8.01 131.08Q8.21 130.83 8.45 130.46Q8.69 130.1 8.92 129.72Q9.16 129.33 9.36 128.95ZM2.64 130.36Q2.79 130.74 2.9 131.06L4 130.68Q3.87 130.34 3.71 129.95Q3.69 129.89 3.67 129.84Q3.53 129.49 3.38 129.16Q3.2 128.76 3.01 128.43Q2.83 128.09 2.7 127.87L1.64 128.26Q1.77 128.53 1.95 128.87Q2.14 129.2 2.32 129.59Q2.5 129.97 2.64 130.36ZM33.68 138.68L33.68 136.47L38.11 136.47L38.11 135.24L33.68 135.24L33.68 133.6L32.31 133.56L32.31 135.24L28.44 135.24Q28.46 134.97 28.46 134.66L28.46 133.11L37.11 133.11L37.11 128.26L27.07 128.26L27.07 133.84Q27.07 135.81 26.96 137.26Q26.85 138.71 26.59 139.89Q26.32 141.06 25.87 142.09Q25.43 143.13 24.76 144.26L26.03 145.02Q26.64 144.04 27.05 143.13Q27.47 142.2 27.75 141.2Q28.04 140.19 28.19 139.04Q28.35 137.89 28.42 136.47L32.31 136.47L32.31 138.68L29.21 138.68L29.21 145.21L30.56 145.21L30.56 144.14L35.45 144.14L35.45 145.19L36.8 145.19L36.8 138.68L33.68 138.68ZM28.46 131.85L28.46 129.55L35.72 129.55L35.72 131.85L28.46 131.85ZM12.7 135.84Q12.28 134.26 12.06 132.36L12.3 131.8L15.4 131.8Q15.2 133.98 14.86 135.67Q14.51 137.36 13.85 138.8Q13.85 138.79 13.84 138.77Q13.11 137.39 12.7 135.84ZM7.84 135.25Q8.49 135.94 9.07 136.64L9.87 135.72Q9.27 135.04 8.57 134.36Q7.87 133.66 7.36 133.26L6.55 134Q7.19 134.57 7.84 135.25ZM40.02 136.26L57.7 136.26L57.7 134.57L40.02 134.57L40.02 136.26ZM7.37 143.37Q7.98 143.68 8.54 144.02L9.07 142.71Q8.58 142.47 8.11 142.26Q7.65 142.05 7.21 141.83Q7.87 141.16 8.33 140.42Q8.8 139.68 9.2 138.84L9.2 137.71L5.04 137.71L5.23 137.23Q5.33 136.98 5.44 136.72L4.16 136.3Q4.04 136.63 3.88 136.98Q3.74 137.32 3.56 137.71L0.64 137.71L0.64 138.91L2.96 138.91Q2.7 139.39 2.41 139.86Q2.14 140.34 1.86 140.81Q3.29 141.34 4.84 142.09Q4.05 142.56 2.99 142.99Q1.92 143.42 0.42 143.86L1.12 145.12Q2.87 144.55 4.08 143.97Q5.29 143.38 6.15 142.74Q6.77 143.07 7.37 143.37ZM4.77 140.78Q4.22 140.54 3.67 140.32Q3.87 139.99 4.07 139.63Q4.27 139.28 4.45 138.91L7.72 138.91Q7.37 139.6 6.96 140.19Q6.55 140.76 5.95 141.28Q5.33 141.01 4.77 140.78ZM30.56 139.97L35.45 139.97L35.45 142.89L30.56 142.89L30.56 139.97Z" fill="#E1E8F1" fill-opacity="1.000000" fill-rule="evenodd"/>
	</g>
	<g opacity="0.200986">
		<path id="Rectangle 56" d="M263.14 164.09C265.35 164.09 267.14 165.88 267.14 168.09C267.14 170.3 265.35 172.09 263.14 172.09L3.14 172.09C0.93 172.09 -0.86 170.3 -0.86 168.09C-0.86 165.88 0.93 164.09 3.14 164.09L263.14 164.09L263.14 164.09Z" fill="#6C9BFF" fill-opacity="1.000000" fill-rule="evenodd"/>
	</g>
	<path id="Rectangle 57" d="M138.14 164.09C140.35 164.09 142.14 165.88 142.14 168.09C142.14 170.3 140.35 172.09 138.14 172.09L4.14 172.09C1.93 172.09 0.14 170.3 0.14 168.09C0.14 165.88 1.93 164.09 4.14 164.09L138.14 164.09L138.14 164.09Z" fill="url(#paint_linear_1_5020_0)" fill-opacity="1.000000" fill-rule="evenodd"/>
	<path id="Rectangle 57" d="" fill="#979797" fill-opacity="0" fill-rule="evenodd"/>
	<g filter="url(#filter_1_5021_dd)">
		<path id="Ellipse 26" d="M136.14 162.09C139.45 162.09 142.14 164.77 142.14 168.09C142.14 171.4 139.45 174.09 136.14 174.09C132.82 174.09 130.14 171.4 130.14 168.09C130.14 164.77 132.82 162.09 136.14 162.09L136.14 162.09Z" fill="#6C9BFF" fill-opacity="1.000000" fill-rule="evenodd"/>
	</g>
	<path id="32" d="M239.88 209.19Q240.99 209.28 242.17 209.28Q246.03 209.28 247.83 207.81Q248.39 207.35 248.78 206.78Q249.64 205.5 249.64 203.65Q249.64 201.72 248.7 200.53Q247.76 199.34 245.69 198.97L245.69 198.8Q247.29 198.32 248.21 197.31Q249.14 196.28 249.14 194.38Q249.14 192.15 248.03 190.94Q247.8 190.7 247.52 190.49Q245.92 189.28 242.78 189.28Q242.2 189.28 241.62 189.33Q241.08 189.37 240.55 189.45Q239.44 189.62 238.72 189.84L238.72 191.91Q239.64 191.63 240.74 191.5Q241.83 191.36 242.66 191.36Q244.77 191.36 245.79 192.09Q245.96 192.21 246.11 192.37Q246.81 193.11 246.81 194.52Q246.81 195.3 246.5 195.92Q246.17 196.57 245.49 197.05Q244.18 197.99 241.63 197.99L240.12 197.99L240.12 199.92L241.66 199.92Q244.43 199.92 245.83 200.74Q246.2 200.95 246.47 201.25Q247.23 202.09 247.23 203.62Q247.23 204.63 246.83 205.32Q246.65 205.64 246.41 205.9Q246.13 206.2 245.77 206.43Q245.1 206.84 244.16 207.01Q243.22 207.18 242.14 207.18Q241.02 207.18 239.96 207.08Q238.92 206.98 237.8 206.7L237.8 208.91Q238.77 209.1 239.88 209.19ZM258.51 202.19Q256.64 203.9 253.53 206.34L253.53 209L266.32 209L266.32 206.87L256.3 206.87L256.3 206.62L257.42 205.75Q259.78 203.87 261.34 202.43Q262.91 200.99 263.84 199.75Q264.76 198.5 265.15 197.33Q265.54 196.17 265.54 194.86Q265.54 193.37 265.11 192.31Q264.76 191.45 264.16 190.85Q264.01 190.71 263.85 190.57Q263.02 189.9 261.87 189.6Q260.73 189.28 259.3 189.28Q258.07 189.28 256.96 189.4Q255.85 189.51 254.87 189.73L254.87 191.89Q256.02 191.58 257.06 191.48Q258.09 191.39 259.02 191.39Q259.72 191.39 260.46 191.53Q261.15 191.66 261.71 192Q261.75 192.03 261.79 192.06Q261.85 192.09 261.91 192.14Q262.42 192.51 262.76 193.12Q263.13 193.79 263.13 194.82Q263.13 194.96 263.13 195.09Q263.09 195.99 262.8 196.89Q262.46 197.91 261.42 199.2Q260.39 200.48 258.51 202.19Z" fill="#FFFAF9" fill-opacity="1.000000" fill-rule="evenodd"/>
	<g opacity="0.835379">
		<path id="数据一" d="M18.6 204.08Q16.13 202.22 14.71 200.21Q15.17 199.39 15.5 198.48Q15.84 197.56 16.07 196.54Q16.3 195.52 16.45 194.35Q16.61 193.16 16.74 191.8L18.1 191.8L18.1 190.37L12.9 190.37Q13.16 189.64 13.37 188.94Q13.58 188.22 13.74 187.51L12.34 187.16Q12.17 188 11.89 188.99Q11.61 189.99 11.22 190.99Q11.16 191.16 11.09 191.33Q10.75 192.15 10.34 192.93Q9.86 193.88 9.29 194.66L10.42 195.39Q10.6 195.1 10.76 194.81Q10.93 194.53 11.1 194.24Q11.35 195.92 11.82 197.38Q12.3 198.84 13.07 200.21Q12.37 201.28 11.35 202.24Q10.33 203.18 8.89 204.15L9.82 205.26Q11.17 204.28 12.17 203.36Q13.18 202.45 13.91 201.47Q14.62 202.42 15.51 203.33Q16.41 204.24 17.56 205.17L18.6 204.08ZM25.4 196.51Q25.92 196.28 26.29 196.1L26.18 195.5L26.03 194.7Q25.7 194.86 25.26 195.06Q24.83 195.26 24.32 195.48L24.32 192.25L26.2 192.25L26.2 190.86L24.32 190.86L24.32 187.29L22.93 187.25L22.93 190.86L20.61 190.86L20.61 192.25L22.93 192.25L22.93 196.03Q22.07 196.36 21.28 196.66Q20.5 196.94 19.96 197.1L20.25 198.53Q20.76 198.36 21.46 198.11Q22.18 197.84 22.93 197.54L22.93 202.4Q22.93 202.74 22.89 202.96Q22.84 203.18 22.7 203.3Q22.58 203.42 22.34 203.48Q22.11 203.55 21.76 203.56L20.78 203.64L21.16 205.01L22.04 204.92Q22.71 204.88 23.15 204.77Q23.59 204.66 23.85 204.42Q23.89 204.39 23.93 204.35Q24.13 204.13 24.21 203.79Q24.32 203.4 24.32 202.78L24.32 196.98Q24.9 196.74 25.4 196.51ZM2.74 194.39Q1.66 195.24 0.28 195.92L0.99 197Q2.25 196.32 3.24 195.54Q4.24 194.75 5 193.86L5 196.32L6.33 196.32L6.33 192.6L9.93 192.6L9.93 191.38L6.33 191.38L6.33 187.36L5 187.29L5 191.38L0.9 191.38L0.9 192.6L4.66 192.6Q3.82 193.55 2.74 194.39ZM9.36 188.95Q9.56 188.56 9.69 188.24L8.58 187.74Q8.43 188.09 8.24 188.48Q8.05 188.86 7.84 189.23Q7.63 189.6 7.41 189.95Q7.19 190.28 7.01 190.52L8.01 191.08Q8.21 190.83 8.45 190.46Q8.69 190.1 8.92 189.72Q9.16 189.33 9.36 188.95ZM2.64 190.36Q2.79 190.74 2.9 191.06L4 190.68Q3.87 190.34 3.71 189.95Q3.69 189.89 3.67 189.84Q3.53 189.49 3.38 189.16Q3.2 188.77 3.01 188.43Q2.83 188.09 2.7 187.87L1.64 188.26Q1.77 188.53 1.95 188.87Q2.14 189.2 2.32 189.59Q2.5 189.97 2.64 190.36ZM33.68 198.68L33.68 196.47L38.11 196.47L38.11 195.24L33.68 195.24L33.68 193.6L32.31 193.56L32.31 195.24L28.44 195.24Q28.46 194.97 28.46 194.66L28.46 193.11L37.11 193.11L37.11 188.26L27.07 188.26L27.07 193.84Q27.07 195.81 26.96 197.26Q26.85 198.71 26.59 199.89Q26.32 201.06 25.87 202.1Q25.43 203.13 24.76 204.26L26.03 205.02Q26.64 204.04 27.05 203.13Q27.47 202.2 27.75 201.2Q28.04 200.19 28.19 199.04Q28.35 197.89 28.42 196.47L32.31 196.47L32.31 198.68L29.21 198.68L29.21 205.21L30.56 205.21L30.56 204.15L35.45 204.15L35.45 205.19L36.8 205.19L36.8 198.68L33.68 198.68ZM28.46 191.85L28.46 189.55L35.72 189.55L35.72 191.85L28.46 191.85ZM12.7 195.84Q12.28 194.26 12.06 192.36L12.3 191.8L15.4 191.8Q15.2 193.98 14.86 195.67Q14.51 197.36 13.85 198.8Q13.85 198.79 13.84 198.77Q13.11 197.39 12.7 195.84ZM7.84 195.25Q8.49 195.94 9.07 196.65L9.87 195.72Q9.27 195.04 8.57 194.36Q7.87 193.66 7.36 193.26L6.55 194Q7.19 194.57 7.84 195.25ZM40.02 196.27L57.7 196.27L57.7 194.57L40.02 194.57L40.02 196.27ZM7.37 203.37Q7.98 203.68 8.54 204.02L9.07 202.71Q8.58 202.47 8.11 202.26Q7.65 202.05 7.21 201.83Q7.87 201.16 8.33 200.43Q8.8 199.68 9.2 198.84L9.2 197.71L5.04 197.71L5.23 197.23Q5.33 196.98 5.44 196.72L4.16 196.3Q4.04 196.63 3.88 196.98Q3.74 197.32 3.56 197.71L0.64 197.71L0.64 198.91L2.96 198.91Q2.7 199.39 2.41 199.86Q2.14 200.34 1.86 200.81Q3.29 201.34 4.84 202.09Q4.05 202.56 2.99 202.99Q1.92 203.42 0.42 203.86L1.12 205.12Q2.87 204.55 4.08 203.97Q5.29 203.38 6.15 202.74Q6.77 203.07 7.37 203.37ZM4.77 200.78Q4.22 200.54 3.67 200.32Q3.87 199.99 4.07 199.63Q4.27 199.28 4.45 198.91L7.72 198.91Q7.37 199.6 6.96 200.19Q6.55 200.76 5.95 201.28Q5.33 201.01 4.77 200.78ZM30.56 199.97L35.45 199.97L35.45 202.89L30.56 202.89L30.56 199.97Z" fill="#E1E8F1" fill-opacity="1.000000" fill-rule="evenodd"/>
	</g>
	<g opacity="0.200986">
		<path id="Rectangle 56" d="M263.14 224.09C265.35 224.09 267.14 225.88 267.14 228.09C267.14 230.3 265.35 232.09 263.14 232.09L3.14 232.09C0.93 232.09 -0.86 230.3 -0.86 228.09C-0.86 225.88 0.93 224.09 3.14 224.09L263.14 224.09L263.14 224.09Z" fill="#6C9BFF" fill-opacity="1.000000" fill-rule="evenodd"/>
	</g>
	<path id="Rectangle 57" d="M74.14 224.09C76.34 224.09 78.14 225.88 78.14 228.09C78.14 230.3 76.34 232.09 74.14 232.09L4.14 232.09C1.93 232.09 0.14 230.3 0.14 228.09C0.14 225.88 1.93 224.09 4.14 224.09L74.14 224.09L74.14 224.09Z" fill="url(#paint_linear_1_5025_0)" fill-opacity="1.000000" fill-rule="evenodd"/>
	<path id="Rectangle 57" d="" fill="#979797" fill-opacity="0" fill-rule="evenodd"/>
	<g filter="url(#filter_1_5026_dd)">
		<path id="Ellipse 26" d="M72.14 222.09C75.45 222.09 78.14 224.77 78.14 228.09C78.14 231.4 75.45 234.09 72.14 234.09C68.82 234.09 66.14 231.4 66.14 228.09C66.14 224.77 68.82 222.09 72.14 222.09L72.14 222.09Z" fill="#6C9BFF" fill-opacity="1.000000" fill-rule="evenodd"/>
	</g>
</svg>
